<svg width="22" height="22" viewBox="0 0 22 22" fill="none" xmlns="http://www.w3.org/2000/svg">
<g id="Group 19759">
<rect id="Rectangle 2154" width="6.77113" height="14.0607" transform="matrix(0.707107 0.707107 -0.707103 0.707111 14.3867 2.82178)" fill="#C4C5FD"/>
<path id="Rectangle 2159" d="M4.44044 12.7614L9.23873 17.5597L8.15213 18.6463C7.77472 19.0237 7.26861 19.2445 6.73524 19.2645L3.46039 19.3874C2.9635 19.406 2.55767 18.9944 2.58339 18.4978L2.75327 15.2184C2.78034 14.6957 3.00014 14.2017 3.3702 13.8316L4.44044 12.7614Z" fill="#F8D8D4"/>
<g id="Mask group">
<mask id="mask0_5886_2494" style="mask-type:alpha" maskUnits="userSpaceOnUse" x="2" y="12" width="8" height="8">
<path id="Rectangle 27103" d="M4.44044 12.7633L9.23873 17.5616L8.15213 18.6482C7.77472 19.0256 7.26861 19.2465 6.73524 19.2665L3.46039 19.3894C2.9635 19.408 2.55767 18.9963 2.58339 18.4998L2.75327 15.2203C2.78034 14.6977 3.00014 14.2036 3.3702 13.8336L4.44044 12.7633Z" fill="#F8D8D4"/>
</mask>
<g mask="url(#mask0_5886_2494)">
<rect id="Rectangle 27102" x="2.37988" y="15.6219" width="5.65461" height="2.24386" transform="rotate(45 2.37988 15.6219)" fill="#8284FB"/>
</g>
</g>
<path id="Rectangle 2162" d="M15.6317 1.57206C16.4127 0.791004 17.6791 0.791002 18.4601 1.57205L20.43 3.54192C21.211 4.32296 21.211 5.5893 20.43 6.37035L19.1394 7.66098L14.3411 2.86269L15.6317 1.57206Z" fill="#8284FB"/>
</g>
</svg>
