<svg width="24" height="24" viewBox="0 0 24 24" fill="none" xmlns="http://www.w3.org/2000/svg">
<path d="M1.6799 8.39618C1.71035 7.53512 2.41719 6.8528 3.27879 6.85274L9.01051 6.85234C9.41044 6.85231 9.80119 6.97218 10.1323 7.19648L13.2275 9.29312C13.6811 9.60036 14.1929 9.81116 14.7313 9.91244L18.5592 10.6325C20.9226 11.0772 22.6348 13.1414 22.6348 15.5463V15.8923C22.6348 16.6655 22.008 17.2923 21.2348 17.2923H2.81563C2.02303 17.2923 1.38849 16.6349 1.4165 15.8428L1.6799 8.39618Z" fill="#FFDC11"/>
<mask id="mask0_5827_41883" style="mask-type:alpha" maskUnits="userSpaceOnUse" x="1" y="6" width="22" height="12">
<path d="M1.6799 8.39618C1.71035 7.53512 2.41719 6.8528 3.27879 6.85274L9.01051 6.85234C9.41044 6.85231 9.80119 6.97218 10.1323 7.19648L13.2275 9.29312C13.6811 9.60036 14.1929 9.81116 14.7313 9.91244L18.5592 10.6325C20.9226 11.0772 22.6348 13.1414 22.6348 15.5463V15.8923C22.6348 16.6655 22.008 17.2923 21.2348 17.2923H2.81563C2.02303 17.2923 1.38849 16.6349 1.4165 15.8428L1.6799 8.39618Z" fill="#3A88F4"/>
</mask>
<g mask="url(#mask0_5827_41883)">
<rect x="16.8535" y="9.36597" width="5.94727" height="6.22852" fill="#E8EBED"/>
<rect x="1.34961" y="15.4285" width="21.4209" height="1.98828" fill="#CED3D9"/>
</g>
<rect x="12.585" y="7.99292" width="1.36523" height="2.86719" rx="0.682617" transform="rotate(30.0928 12.585 7.99292)" fill="#D2C265"/>
<rect x="10.9629" y="6.70776" width="1.36523" height="2.86719" rx="0.682617" transform="rotate(46.6268 10.9629 6.70776)" fill="#D2C265"/>
<rect x="14.5381" y="8.84253" width="1.36523" height="2.86719" rx="0.682617" transform="rotate(11.8792 14.5381 8.84253)" fill="#D2C265"/>
</svg>
